<svg width="13" height="17" viewBox="0 0 13 17" fill="none" xmlns="http://www.w3.org/2000/svg">
    <path d="M0.574829 16.3642V16.3638V2.86383C0.574829 2.46601 0.732864 2.08447 1.01417 1.80317C1.29547 1.52187 1.677 1.36383 2.07483 1.36383H10.0748C10.4727 1.36383 10.8542 1.52187 11.1355 1.80317C11.4168 2.08448 11.5748 2.46601 11.5748 2.86383V16.3638V16.3642L11.5743 16.3639L6.31431 13.4939L6.07483 13.3632L5.83534 13.4939L0.575345 16.3639L0.574829 16.3642ZM5.46539 4.74473L4.90704 5.87638L3.65505 6.05801L3.65504 6.058L3.65182 6.05849C3.5273 6.07738 3.41051 6.13059 3.31453 6.21213C3.21856 6.29367 3.14719 6.40034 3.10844 6.52017C3.06968 6.64 3.06507 6.76826 3.09511 6.89056C3.12515 7.01286 3.18867 7.12438 3.27853 7.21261L3.27966 7.21372L4.18467 8.09667L3.97193 9.34482L3.97162 9.34672C3.95091 9.47109 3.9653 9.59877 4.01315 9.71541C4.06101 9.83204 4.14043 9.93303 4.24252 10.007C4.3446 10.081 4.4653 10.1251 4.59103 10.1343C4.71678 10.1434 4.8426 10.1174 4.95434 10.059L4.95559 10.0583L6.07533 9.46938L7.19507 10.0583L7.19506 10.0584L7.1994 10.0606C7.31103 10.1179 7.43638 10.1432 7.56149 10.1335C7.68661 10.1238 7.80658 10.0796 7.90806 10.0057C8.00954 9.93189 8.08852 9.83134 8.13623 9.71528C8.18395 9.5992 8.19851 9.47217 8.1783 9.34832L8.17832 9.34831L8.17767 9.34454L7.96396 8.09495L8.86965 7.21306L8.87113 7.21161C8.96099 7.12338 9.0245 7.01186 9.05455 6.88956C9.08459 6.76725 9.07998 6.63899 9.04122 6.51917C9.00247 6.39935 8.9311 6.29268 8.83512 6.21113C8.73914 6.12958 8.62235 6.07638 8.49784 6.05749L8.49784 6.05748L8.49461 6.05701L7.24255 5.87537L6.68427 4.74473C6.68404 4.74427 6.68382 4.7438 6.68359 4.74334C6.62788 4.62973 6.54149 4.53396 6.43417 4.46689C6.32641 4.39954 6.2019 4.36383 6.07483 4.36383C5.94776 4.36383 5.82325 4.39954 5.71549 4.46689C5.60818 4.53396 5.52179 4.62971 5.46608 4.74331C5.46585 4.74378 5.46562 4.74426 5.46539 4.74473Z"
          stroke="black"/>
</svg>
