<svg width="30" height="28" viewBox="0 0 30 28" fill="none" xmlns="http://www.w3.org/2000/svg">
<g clip-path="url(#clip0_599_5868)">
<path fill-rule="evenodd" clip-rule="evenodd" d="M4.19971 27.125V3.5C4.19971 2.57174 4.58163 1.6815 5.26145 1.02513C5.94126 0.368749 6.8633 0 7.82471 0L22.3247 0C23.2861 0 24.2081 0.368749 24.888 1.02513C25.5678 1.6815 25.9497 2.57174 25.9497 3.5V27.125C25.9498 27.2769 25.909 27.4263 25.8311 27.5584C25.7533 27.6904 25.6412 27.8007 25.5058 27.8782C25.3705 27.9557 25.2166 27.9979 25.0592 28.0005C24.9019 28.0031 24.7465 27.9662 24.6085 27.8932L15.0747 22.8708L5.54096 27.8932C5.4029 27.9662 5.24755 28.0031 5.0902 28.0005C4.93285 27.9979 4.77892 27.9557 4.64357 27.8782C4.50822 27.8007 4.39612 27.6904 4.31829 27.5584C4.24046 27.4263 4.19959 27.2769 4.19971 27.125ZM15.3647 7.175C15.3382 7.12252 15.297 7.07829 15.2457 7.04735C15.1944 7.01641 15.1352 7 15.0747 7C15.0142 7 14.955 7.01641 14.9037 7.04735C14.8524 7.07829 14.8112 7.12252 14.7847 7.175L13.6356 9.42375C13.6126 9.46924 13.5784 9.50863 13.5361 9.53851C13.4938 9.56839 13.4446 9.58787 13.3927 9.59525L10.819 9.95575C10.7597 9.96443 10.7041 9.98887 10.6585 10.0263C10.6128 10.0638 10.5788 10.1128 10.5604 10.1679C10.5419 10.2229 10.5398 10.2818 10.554 10.338C10.5683 10.3942 10.5986 10.4455 10.6413 10.486L12.501 12.2378C12.5771 12.3095 12.6115 12.4128 12.5934 12.5142L12.1566 14.9887C12.1467 15.0459 12.1536 15.1045 12.1763 15.1581C12.1991 15.2117 12.2369 15.2581 12.2855 15.2921C12.3341 15.3261 12.3915 15.3464 12.4513 15.3506C12.5112 15.3548 12.571 15.3428 12.6242 15.316L14.9261 14.147C14.9722 14.1237 15.0235 14.1115 15.0756 14.1115C15.1277 14.1115 15.179 14.1237 15.2251 14.147L17.527 15.316C17.5801 15.3423 17.6398 15.3539 17.6993 15.3495C17.7589 15.345 17.816 15.3247 17.8642 15.2908C17.9125 15.2569 17.9501 15.2107 17.9728 15.1573C17.9955 15.104 18.0024 15.0457 17.9928 14.9887L17.5542 12.5125C17.545 12.4628 17.5484 12.4116 17.5642 12.3634C17.5799 12.3153 17.6076 12.2715 17.6448 12.236L19.5081 10.4843C19.5508 10.4437 19.5811 10.3925 19.5954 10.3363C19.6097 10.2801 19.6075 10.2212 19.589 10.1661C19.5706 10.1111 19.5366 10.0621 19.491 10.0246C19.4453 9.98712 19.3897 9.96268 19.3305 9.954L16.7567 9.5935C16.7048 9.58612 16.6556 9.56664 16.6133 9.53676C16.571 9.50688 16.5368 9.46749 16.5138 9.422L15.3647 7.175Z"
      fill="#current"/>
</g>
<defs>
<clipPath id="clip0_599_5868">
<rect width="29" height="28" fill="white" transform="translate(0.574707)"/>
</clipPath>
</defs>
</svg>
