<svg width="17" height="17" viewBox="0 0 17 17" fill="none" xmlns="http://www.w3.org/2000/svg">
<g clip-path="url(#clip0_314_981)">
<path fill-rule="evenodd" clip-rule="evenodd" d="M2.75 16.0361V2.53612C2.75 2.00568 2.96071 1.49698 3.33579 1.1219C3.71086 0.746831 4.21957 0.536118 4.75 0.536118L12.75 0.536118C13.2804 0.536118 13.7891 0.746831 14.1642 1.1219C14.5393 1.49698 14.75 2.00568 14.75 2.53612V16.0361C14.7501 16.1229 14.7275 16.2083 14.6846 16.2838C14.6416 16.3592 14.5798 16.4222 14.5051 16.4665C14.4304 16.5108 14.3455 16.5349 14.2587 16.5364C14.1719 16.5379 14.0862 16.5168 14.01 16.4751L8.75 13.6051L3.49 16.4751C3.41383 16.5168 3.32812 16.5379 3.2413 16.5364C3.15449 16.5349 3.06957 16.5108 2.99489 16.4665C2.92022 16.4222 2.85836 16.3592 2.81542 16.2838C2.77248 16.2083 2.74994 16.1229 2.75 16.0361ZM8.91 4.63612C8.89538 4.60613 8.87263 4.58085 8.84434 4.56317C8.81605 4.54549 8.78336 4.53612 8.75 4.53612C8.71664 4.53612 8.68395 4.54549 8.65566 4.56317C8.62737 4.58085 8.60462 4.60613 8.59 4.63612L7.956 5.92112C7.94331 5.94711 7.92447 5.96962 7.90112 5.9867C7.87778 6.00377 7.85062 6.0149 7.822 6.01912L6.402 6.22512C6.36931 6.23008 6.33865 6.24405 6.31345 6.26545C6.28825 6.28686 6.26952 6.31487 6.25934 6.34633C6.24917 6.37779 6.24796 6.41146 6.25584 6.44357C6.26373 6.47568 6.28041 6.50495 6.304 6.52812L7.33 7.52912C7.372 7.57012 7.391 7.62912 7.381 7.68712L7.14 9.10112C7.13456 9.13377 7.13834 9.16729 7.1509 9.19791C7.16347 9.22853 7.18432 9.25505 7.21112 9.27447C7.23792 9.2939 7.26961 9.30546 7.30262 9.30787C7.33563 9.31029 7.36866 9.30344 7.398 9.28812L8.668 8.62012C8.69346 8.6068 8.72177 8.59984 8.7505 8.59984C8.77923 8.59984 8.80754 8.6068 8.833 8.62012L10.103 9.28812C10.1323 9.30317 10.1652 9.30979 10.1981 9.30725C10.2309 9.30471 10.2624 9.2931 10.2891 9.27371C10.3157 9.25433 10.3364 9.22793 10.349 9.19746C10.3615 9.16699 10.3653 9.13363 10.36 9.10112L10.118 7.68612C10.1129 7.6577 10.1148 7.62847 10.1235 7.60094C10.1322 7.57342 10.1475 7.54842 10.168 7.52812L11.196 6.52712C11.2196 6.50395 11.2363 6.47468 11.2442 6.44257C11.252 6.41046 11.2508 6.37679 11.2407 6.34533C11.2305 6.31387 11.2117 6.28586 11.1865 6.26445C11.1614 6.24305 11.1307 6.22908 11.098 6.22412L9.678 6.01812C9.64938 6.0139 9.62222 6.00277 9.59888 5.9857C9.57553 5.96862 9.55669 5.94611 9.544 5.92012L8.91 4.63612Z"
      fill="current"/>
</g>
<defs>
<clipPath id="clip0_314_981">
<rect width="16" height="16" fill="white" transform="translate(0.75 0.536118)"/>
</clipPath>
</defs>
</svg>
